<svg width="281.1" height="22.56" viewBox="0 0 281.1 22.56" xmlns="http://www.w3.org/2000/svg"><g id="svgGroup" stroke-linecap="round" fill-rule="evenodd" font-size="9pt" stroke="#383838" stroke-width="0.55mm" fill="#383838" style="stroke:#383838;stroke-width:0.55mm;fill:#383838"><path d="M 21.15 22.2 L 18.45 22.2 L 18.45 0 L 21.15 0 L 21.15 9.09 Q 21.99 7.86 23.28 7.05 A 5.272 5.272 0 0 1 25.417 6.297 A 6.779 6.779 0 0 1 26.31 6.24 Q 28.326 6.24 29.564 7.167 A 3.978 3.978 0 0 1 30.255 7.83 A 5.521 5.521 0 0 1 31.336 10.043 Q 31.532 10.836 31.557 11.763 A 10.129 10.129 0 0 1 31.56 12.03 L 31.56 22.2 L 28.86 22.2 L 28.86 12.33 A 5.887 5.887 0 0 0 28.759 11.208 Q 28.58 10.283 28.08 9.63 A 2.526 2.526 0 0 0 26.233 8.626 A 3.594 3.594 0 0 0 25.89 8.61 A 3.969 3.969 0 0 0 23.876 9.17 A 5.276 5.276 0 0 0 23.265 9.585 Q 22.02 10.56 21.15 11.88 L 21.15 22.2 Z M 270.69 22.2 L 267.99 22.2 L 267.99 0 L 270.69 0 L 270.69 9.09 Q 271.53 7.86 272.82 7.05 A 5.272 5.272 0 0 1 274.957 6.297 A 6.779 6.779 0 0 1 275.85 6.24 Q 277.866 6.24 279.104 7.167 A 3.978 3.978 0 0 1 279.795 7.83 A 5.521 5.521 0 0 1 280.876 10.043 Q 281.072 10.836 281.097 11.763 A 10.129 10.129 0 0 1 281.1 12.03 L 281.1 22.2 L 278.4 22.2 L 278.4 12.33 A 5.887 5.887 0 0 0 278.299 11.208 Q 278.12 10.283 277.62 9.63 A 2.526 2.526 0 0 0 275.773 8.626 A 3.594 3.594 0 0 0 275.43 8.61 A 3.969 3.969 0 0 0 273.416 9.17 A 5.276 5.276 0 0 0 272.805 9.585 Q 271.56 10.56 270.69 11.88 L 270.69 22.2 Z M 235.86 16.74 L 235.86 6.6 L 238.56 6.6 L 238.56 16.38 A 6.894 6.894 0 0 0 238.636 17.44 Q 238.723 17.994 238.907 18.441 A 3.041 3.041 0 0 0 239.34 19.185 A 2.521 2.521 0 0 0 240.874 20.091 A 3.842 3.842 0 0 0 241.62 20.16 Q 242.85 20.16 244.005 19.665 Q 245.16 19.17 246.06 18.33 L 246.06 6.6 L 248.76 6.6 L 248.76 18.15 Q 248.76 19.44 249.315 19.845 Q 249.87 20.25 250.53 20.25 L 249.96 22.35 Q 247.17 22.35 246.51 20.13 Q 245.46 21.21 244.08 21.885 Q 242.7 22.56 241.11 22.56 Q 239.76 22.56 238.56 21.99 A 4.332 4.332 0 0 1 236.907 20.598 A 5.48 5.48 0 0 1 236.61 20.145 A 4.872 4.872 0 0 1 236.111 18.917 Q 235.86 17.971 235.86 16.74 Z M 117.66 22.2 L 114.96 22.2 L 114.96 6.6 L 117.57 6.6 L 117.57 9.21 Q 118.41 7.95 119.715 7.095 A 5.195 5.195 0 0 1 121.847 6.308 A 6.789 6.789 0 0 1 122.82 6.24 Q 124.836 6.24 126.074 7.167 A 3.978 3.978 0 0 1 126.765 7.83 A 5.521 5.521 0 0 1 127.846 10.043 Q 128.042 10.836 128.067 11.763 A 10.129 10.129 0 0 1 128.07 12.03 L 128.07 22.2 L 125.37 22.2 L 125.37 12.33 A 5.779 5.779 0 0 0 125.267 11.208 Q 125.136 10.543 124.836 10.019 A 3.29 3.29 0 0 0 124.575 9.63 A 2.574 2.574 0 0 0 122.692 8.624 A 3.618 3.618 0 0 0 122.37 8.61 A 3.937 3.937 0 0 0 120.315 9.199 A 5.206 5.206 0 0 0 119.76 9.585 Q 118.53 10.56 117.66 11.88 L 117.66 22.2 Z M 180.21 22.2 L 177.51 22.2 L 177.51 6.6 L 180.12 6.6 L 180.12 9.21 Q 180.96 7.95 182.265 7.095 A 5.195 5.195 0 0 1 184.397 6.308 A 6.789 6.789 0 0 1 185.37 6.24 Q 187.386 6.24 188.624 7.167 A 3.978 3.978 0 0 1 189.315 7.83 A 5.521 5.521 0 0 1 190.396 10.043 Q 190.592 10.836 190.617 11.763 A 10.129 10.129 0 0 1 190.62 12.03 L 190.62 22.2 L 187.92 22.2 L 187.92 12.33 A 5.779 5.779 0 0 0 187.817 11.208 Q 187.686 10.543 187.386 10.019 A 3.29 3.29 0 0 0 187.125 9.63 A 2.574 2.574 0 0 0 185.242 8.624 A 3.618 3.618 0 0 0 184.92 8.61 A 3.937 3.937 0 0 0 182.865 9.199 A 5.206 5.206 0 0 0 182.31 9.585 Q 181.08 10.56 180.21 11.88 L 180.21 22.2 Z M 9.3 22.2 L 6.45 22.2 L 6.45 3.72 L 0 3.72 L 0 1.2 L 15.75 1.2 L 15.75 3.72 L 9.3 3.72 L 9.3 22.2 Z M 68.73 22.2 L 65.88 22.2 L 65.88 3.72 L 59.43 3.72 L 59.43 1.2 L 75.18 1.2 L 75.18 3.72 L 68.73 3.72 L 68.73 22.2 Z M 211.47 22.2 L 208.62 22.2 L 208.62 3.72 L 202.17 3.72 L 202.17 1.2 L 217.92 1.2 L 217.92 3.72 L 211.47 3.72 L 211.47 22.2 Z M 48.84 15.51 L 37.92 15.51 A 7.226 7.226 0 0 0 38.262 17.018 Q 38.663 18.161 39.45 18.93 A 4.243 4.243 0 0 0 41.737 20.073 A 6.006 6.006 0 0 0 42.78 20.16 A 11.019 11.019 0 0 0 44.063 20.089 A 8.273 8.273 0 0 0 45.21 19.875 Q 46.29 19.59 47.28 19.14 L 47.91 21.45 A 12.231 12.231 0 0 1 46.61 21.938 A 15.559 15.559 0 0 1 45.48 22.245 A 11.674 11.674 0 0 1 43.952 22.491 A 15.608 15.608 0 0 1 42.45 22.56 A 8.495 8.495 0 0 1 40.126 22.258 A 6.332 6.332 0 0 1 37.125 20.415 A 7.056 7.056 0 0 1 35.563 17.553 Q 35.16 16.154 35.16 14.4 A 10.608 10.608 0 0 1 35.41 12.053 A 8.652 8.652 0 0 1 36.045 10.215 A 7.393 7.393 0 0 1 37.55 8.09 A 6.866 6.866 0 0 1 38.52 7.305 Q 40.11 6.24 42.21 6.24 A 8.566 8.566 0 0 1 43.851 6.389 Q 44.854 6.585 45.655 7.038 A 5.164 5.164 0 0 1 45.945 7.215 Q 47.43 8.19 48.18 9.84 A 8.456 8.456 0 0 1 48.908 12.799 A 10.03 10.03 0 0 1 48.93 13.47 A 22.561 22.561 0 0 1 48.843 15.479 A 20.779 20.779 0 0 1 48.84 15.51 Z M 145.35 15.51 L 134.43 15.51 A 7.226 7.226 0 0 0 134.772 17.018 Q 135.172 18.161 135.96 18.93 A 4.243 4.243 0 0 0 138.247 20.073 A 6.006 6.006 0 0 0 139.29 20.16 A 11.019 11.019 0 0 0 140.573 20.089 A 8.273 8.273 0 0 0 141.72 19.875 Q 142.8 19.59 143.79 19.14 L 144.42 21.45 A 12.231 12.231 0 0 1 143.12 21.938 A 15.559 15.559 0 0 1 141.99 22.245 A 11.674 11.674 0 0 1 140.462 22.491 A 15.608 15.608 0 0 1 138.96 22.56 A 8.495 8.495 0 0 1 136.636 22.258 A 6.332 6.332 0 0 1 133.635 20.415 A 7.056 7.056 0 0 1 132.073 17.553 Q 131.67 16.154 131.67 14.4 A 10.608 10.608 0 0 1 131.92 12.053 A 8.652 8.652 0 0 1 132.555 10.215 A 7.393 7.393 0 0 1 134.06 8.09 A 6.866 6.866 0 0 1 135.03 7.305 Q 136.62 6.24 138.72 6.24 A 8.566 8.566 0 0 1 140.361 6.389 Q 141.364 6.585 142.165 7.038 A 5.164 5.164 0 0 1 142.455 7.215 Q 143.94 8.19 144.69 9.84 A 8.456 8.456 0 0 1 145.418 12.799 A 10.03 10.03 0 0 1 145.44 13.47 A 22.561 22.561 0 0 1 145.353 15.479 A 20.779 20.779 0 0 1 145.35 15.51 Z M 264.6 7.17 L 263.79 9.45 Q 262.95 9.03 262.185 8.835 A 6.163 6.163 0 0 0 261.272 8.677 A 7.906 7.906 0 0 0 260.49 8.64 A 4.767 4.767 0 0 0 258.314 9.133 A 4.84 4.84 0 0 0 256.965 10.155 Q 255.612 11.593 255.544 14.072 A 9.682 9.682 0 0 0 255.54 14.34 A 7.558 7.558 0 0 0 255.752 16.158 A 6.435 6.435 0 0 0 256.14 17.28 Q 256.74 18.6 257.805 19.38 A 4.039 4.039 0 0 0 259.956 20.148 A 5.072 5.072 0 0 0 260.31 20.16 A 8.526 8.526 0 0 0 261.182 20.118 Q 261.779 20.056 262.26 19.905 A 9.479 9.479 0 0 0 263.1 19.594 Q 263.535 19.41 264 19.17 L 264.84 21.45 A 8.561 8.561 0 0 1 263.455 22.052 A 10.287 10.287 0 0 1 262.755 22.26 Q 261.618 22.555 260.176 22.56 A 14.342 14.342 0 0 1 260.13 22.56 A 8.041 8.041 0 0 1 258.018 22.293 A 6.622 6.622 0 0 1 256.245 21.525 Q 254.58 20.49 253.68 18.645 Q 252.78 16.8 252.78 14.4 Q 252.78 12.15 253.695 10.29 Q 254.61 8.43 256.32 7.335 A 6.92 6.92 0 0 1 259.22 6.309 A 8.883 8.883 0 0 1 260.34 6.24 A 12.393 12.393 0 0 1 261.435 6.286 Q 261.996 6.336 262.486 6.44 A 7.191 7.191 0 0 1 262.665 6.48 Q 263.67 6.72 264.6 7.17 Z M 99.63 7.86 L 99.63 6.6 L 102.09 6.6 L 102.09 18.42 A 3.645 3.645 0 0 0 102.12 18.911 Q 102.197 19.475 102.469 19.761 A 0.89 0.89 0 0 0 102.645 19.905 Q 103.2 20.25 103.86 20.25 L 103.29 22.35 Q 100.481 22.35 99.841 20.124 A 4.076 4.076 0 0 1 99.81 20.01 A 6.392 6.392 0 0 1 98.877 21.038 A 8.549 8.549 0 0 1 97.935 21.765 A 4.478 4.478 0 0 1 96.449 22.396 Q 95.844 22.538 95.138 22.557 A 8.162 8.162 0 0 1 94.92 22.56 Q 92.97 22.56 91.38 21.57 A 6.884 6.884 0 0 1 89.156 19.312 A 8.377 8.377 0 0 1 88.845 18.765 A 8.168 8.168 0 0 1 88.056 16.382 A 10.993 10.993 0 0 1 87.9 14.49 A 9.943 9.943 0 0 1 88.199 12.009 A 8.39 8.39 0 0 1 88.845 10.29 Q 89.79 8.43 91.455 7.335 A 6.689 6.689 0 0 1 94.813 6.253 A 8.216 8.216 0 0 1 95.28 6.24 A 6.775 6.775 0 0 1 96.718 6.387 A 5.611 5.611 0 0 1 97.725 6.705 A 7.801 7.801 0 0 1 99.011 7.393 A 6.631 6.631 0 0 1 99.63 7.86 Z M 80.58 22.2 L 77.88 22.2 L 77.88 6.6 L 80.49 6.6 L 80.49 9.99 Q 80.88 9 81.54 8.145 Q 82.2 7.29 83.19 6.765 A 4.445 4.445 0 0 1 84.594 6.308 A 5.838 5.838 0 0 1 85.5 6.24 Q 85.95 6.24 86.4 6.285 A 5.692 5.692 0 0 1 86.716 6.325 Q 86.963 6.364 87.15 6.42 L 86.34 9.21 Q 85.796 8.981 85.06 8.97 A 4.979 4.979 0 0 0 84.99 8.97 A 3.887 3.887 0 0 0 83.001 9.524 A 4.682 4.682 0 0 0 82.875 9.6 Q 81.877 10.226 81.234 11.533 A 6.878 6.878 0 0 0 81.225 11.55 Q 80.696 12.632 80.601 14.198 A 11.727 11.727 0 0 0 80.58 14.91 L 80.58 22.2 Z M 151.74 22.2 L 149.04 22.2 L 149.04 6.6 L 151.65 6.6 L 151.65 9.99 Q 152.04 9 152.7 8.145 Q 153.36 7.29 154.35 6.765 A 4.445 4.445 0 0 1 155.754 6.308 A 5.838 5.838 0 0 1 156.66 6.24 Q 157.11 6.24 157.56 6.285 A 5.692 5.692 0 0 1 157.876 6.325 Q 158.122 6.364 158.31 6.42 L 157.5 9.21 Q 156.956 8.981 156.22 8.97 A 4.979 4.979 0 0 0 156.15 8.97 A 3.887 3.887 0 0 0 154.161 9.524 A 4.682 4.682 0 0 0 154.035 9.6 Q 153.037 10.226 152.394 11.533 A 6.878 6.878 0 0 0 152.385 11.55 Q 151.856 12.632 151.761 14.198 A 11.727 11.727 0 0 0 151.74 14.91 L 151.74 22.2 Z M 222.048 22.158 A 8.164 8.164 0 0 0 224.64 22.56 A 9.218 9.218 0 0 0 225.322 22.535 A 7.577 7.577 0 0 0 228.615 21.54 Q 230.37 20.52 231.39 18.675 A 7.877 7.877 0 0 0 232.186 16.533 A 10.255 10.255 0 0 0 232.41 14.34 A 10.363 10.363 0 0 0 232.264 12.567 A 7.738 7.738 0 0 0 231.375 10.035 Q 230.34 8.22 228.585 7.23 A 7.455 7.455 0 0 0 227.193 6.622 A 8.321 8.321 0 0 0 224.64 6.24 A 9.398 9.398 0 0 0 224.166 6.252 A 7.851 7.851 0 0 0 220.68 7.23 Q 218.91 8.22 217.89 10.05 Q 216.87 11.88 216.87 14.4 Q 216.87 16.8 217.875 18.645 Q 218.88 20.49 220.65 21.525 A 7.368 7.368 0 0 0 222.048 22.158 Z M 110.16 22.2 L 107.46 22.2 L 107.46 6.6 L 110.16 6.6 L 110.16 22.2 Z M 172.71 22.2 L 170.01 22.2 L 170.01 6.6 L 172.71 6.6 L 172.71 22.2 Z M 224.64 20.16 A 5.622 5.622 0 0 0 226.208 19.953 A 4.2 4.2 0 0 0 228.33 18.555 A 5.641 5.641 0 0 0 229.476 16.128 A 8.131 8.131 0 0 0 229.65 14.4 A 6.413 6.413 0 0 0 229.283 12.214 A 6.004 6.004 0 0 0 228.99 11.535 A 5.759 5.759 0 0 0 227.738 9.864 A 5.451 5.451 0 0 0 227.205 9.435 Q 226.08 8.64 224.64 8.64 A 5.775 5.775 0 0 0 223.072 8.841 A 4.211 4.211 0 0 0 220.95 10.2 A 5.363 5.363 0 0 0 219.848 12.412 Q 219.65 13.209 219.632 14.145 A 9.86 9.86 0 0 0 219.63 14.34 Q 219.63 15.9 220.29 17.235 A 5.831 5.831 0 0 0 221.349 18.747 A 5.288 5.288 0 0 0 222.075 19.365 Q 223.2 20.16 224.64 20.16 Z M 99.39 18.21 L 99.39 9.84 Q 98.58 9.27 97.605 8.925 Q 96.63 8.58 95.55 8.58 A 4.777 4.777 0 0 0 94.059 8.806 A 4.207 4.207 0 0 0 93.015 9.315 Q 91.92 10.05 91.29 11.355 Q 90.66 12.66 90.66 14.4 A 7.67 7.67 0 0 0 90.818 15.986 A 6.103 6.103 0 0 0 91.29 17.385 A 5.281 5.281 0 0 0 92.222 18.749 A 4.709 4.709 0 0 0 93.03 19.425 Q 94.14 20.16 95.52 20.16 Q 96.66 20.16 97.68 19.605 Q 98.7 19.05 99.39 18.21 Z M 37.89 13.32 L 46.44 13.32 A 7.307 7.307 0 0 0 46.319 11.944 Q 46.17 11.169 45.839 10.562 A 3.727 3.727 0 0 0 45.3 9.81 A 3.747 3.747 0 0 0 43.212 8.677 A 5.519 5.519 0 0 0 42.15 8.58 Q 40.41 8.58 39.27 9.795 Q 38.13 11.01 37.89 13.32 Z M 134.4 13.32 L 142.95 13.32 A 7.307 7.307 0 0 0 142.829 11.944 Q 142.68 11.169 142.349 10.562 A 3.727 3.727 0 0 0 141.81 9.81 A 3.747 3.747 0 0 0 139.722 8.677 A 5.519 5.519 0 0 0 138.66 8.58 Q 136.92 8.58 135.78 9.795 Q 134.64 11.01 134.4 13.32 Z M 107.501 3.386 A 1.792 1.792 0 0 0 108.81 3.93 A 2.453 2.453 0 0 0 109.259 3.891 A 1.694 1.694 0 0 0 110.19 3.405 A 1.733 1.733 0 0 0 110.617 2.665 A 2.253 2.253 0 0 0 110.7 2.04 A 2.176 2.176 0 0 0 110.7 2.016 A 1.818 1.818 0 0 0 110.145 0.705 Q 109.59 0.15 108.81 0.15 Q 107.94 0.15 107.43 0.66 Q 106.92 1.17 106.92 2.04 A 1.797 1.797 0 0 0 107.068 2.766 A 1.993 1.993 0 0 0 107.475 3.36 A 2.242 2.242 0 0 0 107.501 3.386 Z M 170.051 3.386 A 1.792 1.792 0 0 0 171.36 3.93 A 2.453 2.453 0 0 0 171.809 3.891 A 1.694 1.694 0 0 0 172.74 3.405 A 1.733 1.733 0 0 0 173.167 2.665 A 2.253 2.253 0 0 0 173.25 2.04 A 2.176 2.176 0 0 0 173.25 2.016 A 1.818 1.818 0 0 0 172.695 0.705 Q 172.14 0.15 171.36 0.15 Q 170.49 0.15 169.98 0.66 Q 169.47 1.17 169.47 2.04 A 1.797 1.797 0 0 0 169.618 2.766 A 1.993 1.993 0 0 0 170.025 3.36 A 2.242 2.242 0 0 0 170.051 3.386 Z" vector-effect="non-scaling-stroke"/></g></svg>